<svg width="54" height="53" viewBox="0 0 54 53" fill="none" xmlns="http://www.w3.org/2000/svg">
<path fill-rule="evenodd" clip-rule="evenodd" d="M44.2181 41.1643L37.0117 37.0519C35.6114 36.2528 33.8045 36.7288 32.9965 38.1144L32.7122 38.602C31.9921 39.8367 30.8844 40.6235 29.4723 40.9095C28.0659 41.1943 26.7244 40.8961 25.5761 40.0445C23.219 38.2966 20.9924 36.3666 18.9092 34.3074C16.8264 32.2485 14.8739 30.0478 13.1062 27.7181C12.2446 26.5826 11.942 25.2566 12.2301 23.8658C12.5193 22.4701 13.3171 21.3768 14.5653 20.6646L15.0582 20.3836C15.7417 19.9937 16.2202 19.3699 16.4246 18.6171C16.6281 17.8676 16.527 17.087 16.1344 16.4148L11.9736 9.29128C11.2348 8.02634 9.71029 7.52435 8.33866 8.04469L8.24912 8.07868C6.83542 8.61476 2.93908 10.0216 1.89199 11.0566C-1.20447 14.1176 0.12043 19.655 1.50186 23.1788C3.92121 29.3501 8.51047 35.29 13.2135 39.9383C17.916 44.5861 23.9246 49.124 30.1671 51.5154C32.333 52.3451 34.7703 53 37.1084 53C39.0653 53 41.0131 52.5317 42.4313 51.1298C43.4295 50.1431 44.91 46.1709 45.4525 44.8221L45.4874 44.7352C46.0289 43.3887 45.4837 41.8864 44.2181 41.1643ZM41.9984 13.2202C42.6797 13.4615 43.1341 14.1005 43.1341 14.8156V22.9268H43.4535C44.3997 22.9268 45.168 23.6863 45.168 24.6216C45.168 25.5579 44.4008 26.3164 43.4535 26.3164H43.1341V28.1925C43.1341 29.1289 42.3658 29.8868 41.4196 29.8868C40.4729 29.8868 39.7056 29.1289 39.7056 28.1925V26.3164H33.2555C32.5923 26.3164 31.9882 25.9381 31.7052 25.346C31.4221 24.7529 31.51 24.0519 31.9311 23.5458L40.0953 13.7382C40.5547 13.1863 41.317 12.9789 41.9984 13.2202ZM39.7056 22.9269H36.8872L39.7056 19.5418V22.9269ZM28.0856 19.5807C28.4005 18.44 28.2155 17.5906 27.5326 17.0565C26.7385 16.4359 25.4163 16.3259 24.5216 16.8076C23.8776 17.1544 23.6052 17.7389 23.6875 18.5958C23.779 19.5276 23.0886 20.356 22.1459 20.445C21.2027 20.5354 20.3662 19.8519 20.2752 18.9211C20.0584 16.6942 21.0081 14.8384 22.8808 13.8302C24.9921 12.695 27.7803 12.9278 29.6605 14.3993C31.4428 15.7928 32.0746 18.0077 31.3933 20.4734C30.9293 22.1537 29.3239 23.3909 27.6261 24.702C26.9013 25.2606 26.1309 25.8547 25.4324 26.4978H30.4142C31.361 26.4978 32.1283 27.2572 32.1283 28.1925C32.1283 29.1289 31.361 29.8868 30.4142 29.8868H21.9422C21.3518 29.8868 20.8024 29.587 20.4891 29.0924C20.1752 28.5982 20.1423 27.9782 20.3997 27.4531C21.5662 25.0773 23.7564 23.3874 25.5159 22.0299C26.5874 21.2026 27.9213 20.1738 28.0856 19.5807ZM54 22.0724C54 27.9678 51.6769 33.5098 47.4599 37.6789C47.1247 38.0092 46.6865 38.1756 46.2473 38.1756C45.8091 38.1756 45.3694 38.0092 45.0353 37.6789C44.3655 37.0169 44.3655 35.9435 45.0353 35.2816C48.6043 31.7536 50.571 27.0619 50.571 22.0724C50.571 11.7702 42.0929 3.38956 31.6708 3.38956C26.6227 3.38956 21.877 5.3332 18.3075 8.86122C17.6377 9.52324 16.5525 9.52324 15.8827 8.86122C15.213 8.1992 15.213 7.1264 15.8827 6.46438C20.1003 2.29634 25.7068 0 31.6708 0C43.9828 0.000104256 54 9.90159 54 22.0724Z" fill="#FF4605"/>
</svg>
