<svg width="62" height="58" viewBox="0 0 62 58" fill="none" xmlns="http://www.w3.org/2000/svg">
<path d="M38.5005 34.2995C38.1532 34.896 37.5229 35.2295 36.875 35.2295C36.5568 35.2295 36.2345 35.1492 35.9391 34.9801L31.3551 32.3551C30.7424 32.7361 30.0191 32.9571 29.2444 32.9571C27.0449 32.9571 25.2555 31.1813 25.2555 28.9986C25.2555 27.4892 26.1126 26.1751 27.3694 25.5085V15.9014C27.3694 14.8745 28.2089 14.042 29.2444 14.042C30.2799 14.042 31.1194 14.8745 31.1194 15.9014V25.5085C32.3759 26.1752 33.233 27.4892 33.233 28.9986C33.233 29.0439 33.2311 29.0889 33.2296 29.1339L37.8145 31.7594C38.7113 32.273 39.0185 33.4101 38.5006 34.2995H38.5005ZM61.9999 44.4389C61.9999 51.9165 55.8656 58 48.3254 58C45.5025 58 42.8766 57.1471 40.6959 55.6878C37.0762 57.221 33.2299 58 29.2441 58C21.4325 58 14.0885 54.9833 8.56513 49.5058C3.04175 44.0282 0 36.7452 0 28.9983C0 21.2515 3.04188 13.9708 8.56513 8.49374C14.0888 3.01653 21.4326 0 29.2442 0C37.0559 0 44.3996 3.01641 49.9232 8.49374C55.4467 13.9708 58.4885 21.2528 58.4885 28.9983C58.4885 30.9369 58.2904 32.8732 57.9038 34.7705C60.4303 37.2325 62 40.6571 62 44.4389H61.9999ZM48.3254 30.8777C49.8278 30.8777 51.2738 31.12 52.6271 31.5659C52.7209 30.7168 52.7694 29.8583 52.7694 28.9983C52.7694 16.134 42.216 5.66812 29.2441 5.66812C16.2723 5.66812 5.719 16.134 5.719 28.9983C5.719 41.8627 16.2724 52.332 29.2441 52.332C31.7224 52.332 34.1484 51.9537 36.4786 51.2064C35.3166 49.2135 34.6507 46.9019 34.6507 44.439C34.6507 36.9614 40.7851 30.8779 48.3252 30.8779L48.3254 30.8777ZM54.8442 39.8727C54.1273 39.1319 52.9404 39.1077 52.1931 39.8189L46.63 45.1145L44.4849 42.987C43.7528 42.2608 42.5655 42.261 41.8332 42.987C41.101 43.7132 41.101 44.8905 41.8332 45.6166L45.2774 49.0323C45.6431 49.3951 46.123 49.577 46.6032 49.577C47.0706 49.577 47.5384 49.4047 47.9016 49.059L54.79 42.5018C55.5371 41.7908 55.5614 40.6136 54.8442 39.8728V39.8727Z" fill="#FF4605"/>
</svg>
