<svg width="69" height="69" viewBox="0 0 69 69" fill="none" xmlns="http://www.w3.org/2000/svg">
<path d="M59.4838 42.953C57.8163 43.988 56.235 44.793 54.8262 45.368C53.8487 45.7992 52.785 46.0005 51.75 46.0005C50.715 46.0005 49.6513 45.7992 48.6738 45.368C46.1725 44.333 43.125 42.608 40.1637 40.2506H12.7075L16.9625 30.4758C17.4225 29.4408 18.4575 28.7508 19.5788 28.7508H30.9063C30.1013 26.9684 29.4688 25.0422 29.1238 23.001H19.5788C16.1575 23.001 13.0525 25.0422 11.6725 28.1758L5.98 41.2568C5.95125 41.3143 5.98 41.3718 5.95125 41.4581C2.44375 43.2405 0 46.8342 0 51.0316V61.8126C0 65.7801 3.22 69 7.1875 69C11.155 69 14.375 65.7801 14.375 61.8126V60.3752H48.875V61.8126C48.875 65.7801 52.095 69 56.0625 69C60.03 69 63.25 65.7801 63.25 61.8126V51.0316C63.25 47.7829 61.7838 44.8792 59.4838 42.953ZM17.25 54.6253H11.5C9.91875 54.6253 8.625 53.3316 8.625 51.7504C8.625 50.1691 9.91875 48.8754 11.5 48.8754H17.25C18.8312 48.8754 20.125 50.1691 20.125 51.7504C20.125 53.3316 18.8312 54.6253 17.25 54.6253ZM51.75 54.6253H46C44.4188 54.6253 43.125 53.3316 43.125 51.7504C43.125 50.1691 44.4188 48.8754 46 48.8754H51.75C53.3312 48.8754 54.625 50.1691 54.625 51.7504C54.625 53.3316 53.3312 54.6253 51.75 54.6253Z" fill="#FF4605"/>
<path d="M67.5366 5.25108L52.4429 0.116435C51.9944 -0.0388117 51.5056 -0.0388117 51.0571 0.116435L35.9634 5.25108C35.0865 5.5472 34.5 6.36943 34.5 7.29228V18.8438C34.5 32.9425 50.2378 39.7964 50.9076 40.081C51.4481 40.3081 52.0519 40.3081 52.5924 40.081C53.2623 39.7964 69 32.9425 69 18.8438V7.29228C69 6.36943 68.4135 5.5472 67.5366 5.25108ZM61.1972 16.1529L53.291 26.2151C52.2848 27.5002 50.3988 27.6871 49.1625 26.6234L44.1313 22.311C42.9238 21.2789 42.7829 19.4619 43.8207 18.2573C44.8529 17.0527 46.6699 16.9147 47.8716 17.9468L50.6259 20.3071L56.6778 12.6052C57.6581 11.3575 59.4636 11.1361 60.7142 12.1222C61.962 13.0968 62.1805 14.9051 61.1972 16.1529Z" fill="#FF4605"/>
</svg>
