<svg width="55" height="55" viewBox="0 0 55 55" fill="none" xmlns="http://www.w3.org/2000/svg">
<path d="M37.2754 19.5508C27.502 19.5508 19.5508 27.502 19.5508 37.2754C19.5508 47.0487 27.502 55 37.2754 55C47.0487 55 55 47.0487 55 37.2754C55 27.502 47.0487 19.5508 37.2754 19.5508ZM37.2754 35.6641C39.941 35.6641 42.1094 37.8325 42.1094 40.498C42.1094 42.596 40.7582 44.3678 38.8867 45.0352V48.5547H35.6641V45.0352C33.7926 44.3678 32.4414 42.596 32.4414 40.498H35.6641C35.6641 41.3871 36.3864 42.1094 37.2754 42.1094C38.1644 42.1094 38.8867 41.3871 38.8867 40.498C38.8867 39.609 38.1644 38.8867 37.2754 38.8867C34.6098 38.8867 32.4414 36.7183 32.4414 34.0527C32.4414 31.9548 33.7926 30.183 35.6641 29.5156V25.9961H38.8867V29.5156C40.7582 30.183 42.1094 31.9548 42.1094 34.0527H38.8867C38.8867 33.1637 38.1644 32.4414 37.2754 32.4414C36.3864 32.4414 35.6641 33.1637 35.6641 34.0527C35.6641 34.9418 36.3864 35.6641 37.2754 35.6641Z" fill="#FF4605"/>
<path d="M17.9395 19.5508C27.8781 19.5508 35.6641 15.3038 35.6641 9.88281C35.6641 4.46187 27.8781 0 17.9395 0C8.00078 0 0 4.46187 0 9.88281C0 15.3038 8.00078 19.5508 17.9395 19.5508Z" fill="#FF4605"/>
<path d="M0 36.2612V38.8867C0 44.3077 8.00078 48.5547 17.9395 48.5547C18.5032 48.5547 19.0494 48.5028 19.6045 48.4756C18.3685 46.5323 17.4467 44.3759 16.9039 42.0706C9.71685 41.8722 3.47639 39.6637 0 36.2612Z" fill="#FF4605"/>
<path d="M16.4056 38.8046C16.3686 38.2978 16.3281 37.7916 16.3281 37.2754C16.3281 35.5956 16.5482 33.9699 16.9236 32.4035C9.72759 32.2085 3.4795 29.9988 0 26.5933V29.2188C0 34.3521 7.22541 38.3863 16.4056 38.8046Z" fill="#FF4605"/>
<path d="M17.9395 29.2188C17.9412 29.2188 17.9426 29.2185 17.9444 29.2185C19.0071 26.6787 20.552 24.3891 22.4704 22.4707C21.0152 22.6546 19.5112 22.7734 17.9395 22.7734C10.2892 22.7734 3.64439 20.4921 0 16.9253V19.5508C0 24.9717 8.00078 29.2188 17.9395 29.2188Z" fill="#FF4605"/>
</svg>
